<svg xmlns="http://www.w3.org/2000/svg" version="1.1" xmlns:xlink="http://www.w3.org/1999/xlink" xmlns:svgjs="http://svgjs.com/svgjs" width="512" height="512" x="0" y="0" viewBox="0 0 512 512" style="enable-background:new 0 0 512 512" xml:space="preserve" fill-rule="evenodd" class=""><g><g fill="#f4a996"><path d="M256 365c-2 0-4-1-5-3-1-1-14-23-56-23-3 0-6-3-6-6V233c0-4 3-6 6-6 35 0 53 14 61 22 8-8 26-22 61-22 3 0 6 2 6 6v100c0 3-3 6-6 6-41 0-55 22-56 23 0 1-1 2-2 2-1 1-2 1-3 1z" fill="#f07100" data-original="#f4a996" class="" opacity="1"></path><path d="M234 362c-33-8-68 8-68 8-2 1-4 1-6-1-2-1-3-3-3-5V256c0-3 3-6 6-6h14v83c0 10 8 18 18 18 13 0 26 2 36 9 1 0 2 1 3 2zm101-112h14c3 0 6 3 6 6v108c0 2-1 4-3 5-2 2-4 2-6 1 0 0-35-16-68-8 1-1 2-2 3-2 11-7 23-9 36-9 10 0 18-8 18-18zM82 382V215h59v167H82zm289 0V215h59v167h-59z" fill="#f07100" data-original="#f4a996" class="" opacity="1"></path></g><path fill="#0277bd" d="M485 173H27c-3 0-6-2-6-6V75c0-2 2-5 4-5L254 0h4l229 70c2 0 4 3 4 5v92c0 4-3 6-6 6zM76 106c-3 0-5-2-6-4-1-4 1-7 4-8l161-49c3-1 6 1 7 4s-1 7-4 8L77 106zm360 0h-1L274 57c-3-1-5-5-4-8s4-5 7-4l161 49c3 1 5 4 4 8-1 2-3 4-6 4zM48 450v-20c0-3 2-6 6-6h404c4 0 6 3 6 6v20zM485 512H27c-3 0-6-2-6-6v-38c0-3 3-6 6-6h458c3 0 6 3 6 6v38c0 4-3 6-6 6z" data-original="#368498" class="" opacity="1"></path><path fill="#f07100" d="M356 412c1-10 9-18 18-18h53c9 0 17 8 17 18zm71-209h-53c-9 0-17-8-18-18h88c0 10-8 18-17 18zm-289 0H85c-9 0-17-8-17-18h88c-1 10-9 18-18 18zM68 412c0-10 8-18 17-18h53c9 0 17 8 18 18z" data-original="#f4a996" class="" opacity="1"></path></g></svg>